# xmcd CD database file
# Copyright (C) 1993-1998 Ti Kan
#
# Track frame offsets:
#  190
#  11870
#  23185
#  37507
#  50215
#  58495
#  69202
#  82550
#  93040
#  103402
#  115335
#  127147
#  138872
#  151982
#
# Disc length: 2150 seconds
#
# Revision: 1
# Processed by: cddbd v1.4b41PL1 Copyright (c) Steve Scherf et al.
# Submitted via: KiC 2.1 - (C) 1996-1998 Alwin Hoogerdijk
#
DISCID=b408640e
DTITLE=Jim and Jesse and the Virginia Boys - In the Tradition
DYEAR=1900
DGENRE=
TTITLE0=You Are the One
TTITLE1=Did You Ever Go Sailing
TTITLE2=Tennessee Lonesome Blues
TTITLE3=Stony Mountain, West Virginia
TTITLE4=Hard Hearted
TTITLE5=I'm Gonna Love You One More Time
TTITLE6=Have You Lost Your Love for Me
TTITLE7=Pardon Me
TTITLE8=I'll Love Nobody But You
TTITLE9=Dear Old Mother
TTITLE10=All the World is Lonely Now
TTITLE11=Chicken Reel
TTITLE12=Gotta Travel On
TTITLE13=Bringing in the Georgia Mail
EXTD=
EXTT0=
EXTT1=
EXTT2=
EXTT3=
EXTT4=
EXTT5=
EXTT6=
EXTT7=
EXTT8=
EXTT9=
EXTT10=
EXTT11=
EXTT12=
EXTT13=
PLAYORDER=
